<svg width="174" height="150" viewBox="0 0 174 150" fill="none" xmlns="http://www.w3.org/2000/svg">
<g opacity="0.8" clip-path="url(#clip0_457_2592)">
<path d="M173.417 67.4451C172.686 68.0704 172.766 69.0549 172.365 69.8324C170.43 73.6099 167.349 75.731 163.17 76.3014C161.278 76.2887 159.385 76.2803 157.492 76.2676C151.597 76.2803 145.703 76.293 139.804 76.3014C137.949 76.2845 136.099 76.2676 134.244 76.2465C127.652 76.2549 121.065 76.2592 114.473 76.2676H108.93C102.57 76.2634 96.2113 76.2676 89.8522 76.2676C88.0057 76.2676 86.155 76.2676 84.3085 76.2676C78.1691 76.2634 72.0296 76.2592 65.8902 76.255C64.0437 76.2634 62.193 76.2719 60.3465 76.2803C53.662 76.2803 46.9733 76.2803 40.2888 76.2761C38.4381 76.2719 36.5916 76.2676 34.7409 76.2592C32.7592 76.2803 30.7733 76.3014 28.7916 76.3226C24.8494 76.293 20.9029 76.2634 16.9606 76.2338C14.9874 76.2465 13.0142 76.2592 11.0451 76.2761C4.87613 75.5197 0.43529 70.4789 0.777543 64.6268C1.1367 58.4916 6.00008 53.962 12.2071 53.9831C11.7635 59.324 17.6747 64.4747 22.7451 64.4493C41.1973 64.3479 59.6494 64.4113 78.1015 64.3986C78.7437 64.3986 79.462 64.6521 80.0113 64.0648C80.1465 64.238 80.3029 64.4028 80.4127 64.5888C82.6733 68.5099 87.2494 69.7437 91.0902 67.4493C92.0832 66.8578 92.8649 66.2155 91.855 64.9521C90.9761 63.8578 90.7775 62.5479 90.7775 61.1578C90.7944 44.7085 90.786 28.2592 90.7902 11.8057C90.7902 8.64932 90.3001 5.3958 92.4888 2.64087C94.3437 4.17467 94.7325 6.30425 94.7747 8.52256C94.8465 12.055 94.8423 15.5873 94.8677 19.1197C94.8677 19.9395 94.8634 20.755 94.8592 21.5704C94.8592 32.3451 94.8592 43.1197 94.8592 53.8944C94.6437 56.7423 95.193 59.6197 94.5339 62.4507C94.0818 64.4028 94.0733 64.4028 96.1902 64.4028C121.931 64.4028 147.672 64.4028 173.409 64.4028V67.4366L173.417 67.4451Z" fill="#09AA7C"/>
<path d="M173.417 64.4113C147.676 64.4113 121.935 64.4113 96.1988 64.4113C94.0819 64.4113 94.0903 64.4113 94.5424 62.4591C95.1974 59.6282 94.6481 56.7507 94.8678 53.9028C100.914 53.8817 106.961 53.8563 113.007 53.8352C120.921 53.8352 128.831 53.8352 136.745 53.8352C144.258 53.8352 151.766 53.8352 159.279 53.8352C161.768 54.0169 164.303 53.7169 166.69 54.8113C170.307 56.4676 172.297 59.4 173.417 63.0634V64.4113Z" fill="#03BA86"/>
<path d="M60.3507 76.2844C62.1972 76.276 64.0479 76.2675 65.8944 76.2591C65.6578 80.1337 66.4564 83.9408 66.6296 87.7901C66.731 90.076 66.9423 92.3619 67.2465 94.6267C67.3606 95.4675 66.9676 96.7985 68.6324 96.7901C73.5085 96.7605 78.3845 96.7732 83.2648 96.7901C83.9958 96.7901 84.4268 96.6295 84.4183 95.776C84.3718 89.2774 84.3465 82.7746 84.3169 76.276C86.1634 76.276 88.0141 76.276 89.8606 76.276C89.8268 82.7366 89.8099 89.1929 89.7507 95.6535C89.7423 96.5619 90.1183 96.7985 90.9592 96.7943C96.0169 96.7689 101.07 96.7689 106.128 96.7943C106.961 96.7985 107.299 96.5661 107.37 95.6704C107.637 92.3788 108.097 89.1042 108.292 85.8126C108.482 82.6309 109.103 79.4788 108.938 76.2718C110.785 76.2718 112.635 76.2718 114.482 76.276C114.3 78.1098 114.11 79.9436 113.941 81.7816C113.527 86.2858 113.146 90.7943 112.703 95.2943C112.585 96.507 113.041 96.8154 114.203 96.8028C119.024 96.7478 123.849 96.7309 128.666 96.8154C129.883 96.8366 130.344 96.4056 130.568 95.2943C131.294 91.6816 132.161 88.0943 132.82 84.4732C133.318 81.7394 134.362 79.0943 134.252 76.2549C136.107 76.2718 137.958 76.2887 139.813 76.3056C139.707 76.9647 139.631 77.6323 139.496 78.2873C138.313 83.9704 137.172 89.6619 135.887 95.3239C135.575 96.6971 136.031 96.807 137.146 96.7943C141.292 96.752 145.441 96.7351 149.59 96.807C150.685 96.8239 151.158 96.4605 151.479 95.4422C153.393 89.4211 155.366 83.4168 157.331 77.4084C157.454 77.0323 157.601 76.6732 157.496 76.2675C159.389 76.2802 161.282 76.2887 163.175 76.3013C159.727 86.9366 156.275 97.5718 152.835 108.211C152.299 109.868 151.268 110.751 149.468 110.569C147.423 109.238 147.186 108.566 147.946 106.246C148.259 105.287 148.517 104.307 148.901 103.373C149.366 102.241 149.045 101.86 147.845 101.873C143.856 101.911 139.872 101.911 135.883 101.873C134.873 101.865 134.413 102.156 134.193 103.225C133.09 108.651 131.911 114.059 130.707 119.463C130.462 120.558 130.935 120.71 131.831 120.706C134.696 120.68 137.561 120.718 140.421 120.693C143.497 120.663 143.079 121.191 144.114 118.052C144.832 115.863 145.517 115.369 147.756 115.36C149.594 116.725 149.827 117.422 149.096 119.666C146.692 127.077 144.292 134.493 141.854 141.891C140.075 147.296 136.466 149.958 130.796 149.962C101.801 149.983 72.8071 149.983 43.8127 149.962C38.1338 149.962 34.5211 147.3 32.7338 141.917C25.5888 120.368 18.4564 98.8098 11.324 77.2563C11.2183 76.9351 11.1423 76.6098 11.0493 76.2844C13.0226 76.2718 14.9958 76.2591 16.9648 76.2422C16.7873 77.1084 17.0958 77.9027 17.3535 78.7013C19.1789 84.2788 21.0296 89.852 22.8254 95.4422C23.1211 96.3633 23.5183 96.8323 24.5747 96.8112C28.2169 96.7436 31.8634 96.7647 35.5057 96.7521C36.2366 96.7605 36.9676 96.7394 37.6944 96.7858C38.6958 96.8492 39.3296 96.7478 38.8986 95.438C38.5352 94.3309 38.4169 93.1436 38.1676 91.9943C37.031 86.7506 35.8859 81.507 34.7409 76.2633C36.5916 76.2675 38.438 76.2718 40.2887 76.276C40.3226 76.6056 40.3268 76.9394 40.3944 77.2647C41.6662 83.2267 42.993 89.176 44.1972 95.1549C44.4465 96.3929 44.8733 96.9464 46.1535 96.7943C46.8718 96.7098 47.6113 96.7605 48.3423 96.7858C49.9944 96.845 51.0296 97.8591 51.0169 99.376C51.0042 101.011 50.1465 101.814 48.3169 101.886C45.6296 101.996 45.6549 101.991 46.2211 104.62C47.269 109.487 48.3169 114.351 49.2845 119.235C49.5 120.33 49.9268 120.731 51.0549 120.718C54.9296 120.663 58.8042 120.655 62.6789 120.718C63.8747 120.739 64.2761 120.359 64.1578 119.176C63.7141 114.668 63.3549 110.151 62.8775 105.646C62.7549 104.493 63.2958 103.06 62.4465 102.241C61.5423 101.362 60.0845 102.008 58.8761 101.89C57.4437 101.746 56.4 100.758 56.3873 99.4478C56.3789 98.0746 57.3127 96.9887 58.7197 96.8154C59.3282 96.7394 59.962 96.7182 60.5704 96.7943C61.8803 96.9591 62.2226 96.414 62.1 95.1675C61.4789 88.876 60.9211 82.5802 60.338 76.2844H60.3507ZM43.3099 120.634C44.3747 120.794 44.1803 120.224 44.0282 119.522C42.938 114.435 41.8817 109.344 40.8169 104.248C40.4817 102.648 39.3944 101.87 37.5549 101.915C33.7944 101.894 30.0296 101.907 26.269 101.835C25.162 101.814 25.0733 102.211 25.3817 103.12C27.2451 108.642 29.0831 114.169 30.9127 119.7C31.124 120.342 31.3902 120.744 32.193 120.731C35.8986 120.663 39.6042 120.659 43.3056 120.63L43.3099 120.634ZM89.7592 111.228C89.7592 113.865 89.8268 116.506 89.7296 119.138C89.6831 120.444 90.1564 120.748 91.3775 120.722C94.8549 120.651 98.3324 120.697 101.814 120.697C103.882 120.697 105.073 119.704 105.389 117.718C105.406 117.608 105.461 117.503 105.469 117.393C105.875 112.66 106.268 107.924 106.682 103.191C106.762 102.275 106.47 101.869 105.482 101.877C100.656 101.911 95.831 101.911 91.0056 101.877C90.0549 101.869 89.7296 102.207 89.7465 103.149C89.793 105.841 89.7634 108.537 89.7634 111.228H89.7592ZM120.165 101.89C117.659 101.89 115.58 101.92 113.506 101.877C112.61 101.86 112.044 101.97 111.98 103.09C111.87 105.084 111.579 107.07 111.401 109.06C111.11 112.335 110.958 115.627 110.518 118.88C110.328 120.279 110.599 120.727 111.972 120.714C115.846 120.676 119.721 120.634 123.592 120.739C124.863 120.773 125.227 120.241 125.446 119.184C126.528 113.949 127.627 108.714 128.768 103.491C128.97 102.566 128.844 102.232 127.804 102.097C125.113 101.746 122.425 102.004 120.165 101.899V101.89ZM84.4099 111.304C84.4099 108.668 84.3592 106.027 84.4352 103.394C84.469 102.215 84.0888 101.848 82.9099 101.865C78.8704 101.928 74.831 101.89 70.7916 101.89C68.0789 101.89 67.9986 101.894 68.2014 104.569C68.5859 109.53 69.1057 114.477 69.4859 119.434C69.5662 120.499 69.9761 120.722 70.9352 120.714C74.9197 120.676 78.9042 120.663 82.8845 120.718C84.0338 120.735 84.4733 120.427 84.4352 119.214C84.3549 116.582 84.4099 113.941 84.4099 111.304ZM89.7592 135.16C89.7592 137.911 89.7887 140.662 89.7423 143.413C89.7254 144.346 90.0211 144.701 90.9887 144.693C94.5803 144.651 98.1761 144.646 101.768 144.693C102.799 144.706 103.187 144.249 103.246 143.32C103.31 142.314 103.365 141.308 103.454 140.303C103.838 135.9 104.227 131.501 104.632 127.103C104.717 126.203 104.468 125.776 103.454 125.784C99.3 125.827 95.1465 125.822 90.993 125.784C90.0169 125.776 89.738 126.148 89.7549 127.073C89.7972 129.769 89.7718 132.46 89.7718 135.156L89.7592 135.16ZM84.4099 135.262C84.4099 132.68 84.3507 130.094 84.4352 127.513C84.4775 126.241 84.1775 125.734 82.7747 125.772C79.1282 125.873 75.4733 125.865 71.8268 125.772C70.4535 125.738 70.069 126.19 70.1916 127.504C70.6902 132.908 71.1423 138.317 71.5648 143.73C71.6366 144.621 72.1226 144.68 72.7986 144.68C76.2254 144.672 79.6521 144.646 83.0747 144.697C84.0972 144.714 84.4521 144.389 84.431 143.353C84.3718 140.658 84.4099 137.962 84.4099 135.266V135.262ZM116.996 125.806C115.2 125.806 113.4 125.848 111.604 125.789C110.552 125.755 110.028 125.92 109.923 127.191C109.483 132.651 108.913 138.101 108.359 143.556C108.262 144.499 108.689 144.697 109.521 144.689C112.61 144.659 115.699 144.625 118.783 144.706C119.835 144.731 120.101 144.266 120.287 143.387C121.424 137.97 122.594 132.558 123.773 127.149C124.01 126.068 123.575 125.763 122.548 125.793C120.697 125.848 118.842 125.81 116.992 125.81L116.996 125.806ZM58.0014 125.806C56.0958 125.806 54.1817 125.865 52.2803 125.784C51.0592 125.734 50.8183 126.287 51.0338 127.31C52.1873 132.722 53.3409 138.131 54.4944 143.544C54.6465 144.253 54.9127 144.714 55.8211 144.697C59.0197 144.638 62.2183 144.655 65.4169 144.684C66.2873 144.693 66.3549 144.389 66.2747 143.577C65.7465 138.068 65.2775 132.553 64.8592 127.035C64.7873 126.089 64.4916 125.763 63.5578 125.793C61.7071 125.844 59.8564 125.81 58.0014 125.81V125.806ZM39.3592 125.797C37.6775 125.797 35.9958 125.822 34.3141 125.789C33.3296 125.772 33.0211 126.025 33.3719 127.073C34.8888 131.577 36.2916 136.12 37.8169 140.62C38.7465 143.353 40.6902 144.659 43.5211 144.676C45.0338 144.684 46.5507 144.659 48.0634 144.684C48.9592 144.701 49.3521 144.583 49.1028 143.446C47.9366 138.169 46.8296 132.879 45.8535 127.563C45.5789 126.068 44.9704 125.653 43.5634 125.772C42.1733 125.886 40.762 125.797 39.3592 125.797ZM135.393 125.806C133.766 125.806 132.135 125.831 130.508 125.797C129.723 125.78 129.355 125.97 129.173 126.862C128.045 132.393 126.845 137.911 125.628 143.425C125.396 144.473 125.789 144.714 126.727 144.689C128.299 144.646 129.87 144.714 131.442 144.668C133.994 144.596 135.816 143.315 136.639 140.873C138.177 136.306 139.593 131.7 141.135 127.137C141.524 125.979 141.152 125.763 140.108 125.797C138.537 125.844 136.965 125.81 135.393 125.81V125.806Z" fill="#0C9D74"/>
<path d="M79.3228 53.9281C79.5213 52.7662 79.4706 51.6 79.3312 50.438C79.5213 45.6591 79.4453 40.8845 79.3692 36.1056C79.3692 28.6817 79.365 21.2535 79.3608 13.8296C79.4326 11.5943 79.4242 9.35068 79.6016 7.12392C79.8551 3.96758 81.6044 1.77462 84.5368 0.743637C87.5115 -0.304251 90.2664 0.253497 92.5016 2.64927C90.3129 5.4042 90.803 8.65772 90.803 11.8141C90.7946 28.2634 90.803 44.7126 90.7904 61.1662C90.7904 62.5563 90.989 63.8662 91.8678 64.9605C92.8819 66.2239 92.1002 66.8662 91.103 67.4577C87.2622 69.7478 82.6861 68.5141 80.4256 64.5972C80.3157 64.407 80.1594 64.2464 80.0242 64.0732C79.0312 60.7436 79.4284 57.3211 79.327 53.9324L79.3228 53.9281ZM87.1185 59.0324C85.9397 59.0112 84.7777 60.0718 84.8664 61.2591C84.9594 62.4887 85.5932 63.3591 86.9622 63.4267C88.2594 63.4901 89.2946 62.5648 89.3199 61.3352C89.3453 60.1479 88.3016 59.0535 87.1185 59.0366V59.0324Z" fill="#14A078"/>
<path d="M79.3225 53.9281C79.4197 57.3169 79.0225 60.7436 80.0197 64.069C79.4661 64.6521 78.7478 64.4028 78.1098 64.4028C59.6577 64.4154 41.2056 64.3521 22.7535 64.4535C17.683 64.483 11.7718 59.3281 12.2154 53.9873C16.3774 53.9366 20.5394 53.8901 24.7014 53.8394C27.1859 53.9661 29.6704 53.983 32.1549 53.8309C32.3788 53.8394 32.607 53.8521 32.8309 53.8605C40.4535 53.8605 48.076 53.8605 55.6985 53.8563C63.5746 53.8816 71.4549 53.907 79.3309 53.9281H79.3225Z" fill="#03BA86"/>
<path d="M147.756 115.356C145.521 115.365 144.837 115.863 144.114 118.048C143.079 121.187 143.497 120.659 140.421 120.689C137.556 120.718 134.692 120.68 131.831 120.701C130.935 120.71 130.462 120.558 130.707 119.459C131.911 114.055 133.09 108.646 134.193 103.221C134.408 102.152 134.873 101.861 135.883 101.869C139.872 101.907 143.856 101.911 147.845 101.869C149.045 101.856 149.366 102.237 148.901 103.369C148.521 104.299 148.263 105.283 147.947 106.242C147.186 108.562 147.423 109.234 149.468 110.565C148.897 112.162 148.327 113.755 147.756 115.352V115.356Z" fill="#20F9BC"/>
<path d="M60.3508 76.2844C60.9339 82.5802 61.4959 88.876 62.1128 95.1676C62.2353 96.414 61.8931 96.9633 60.5832 96.7943C59.9747 96.7182 59.3452 96.7394 58.7325 96.8154C57.3212 96.9887 56.3874 98.0746 56.4001 99.4478C56.4086 100.758 57.4564 101.746 58.8888 101.89C60.0973 102.013 61.555 101.366 62.4593 102.241C63.3086 103.061 62.7677 104.493 62.8902 105.646C63.3635 110.151 63.7226 114.668 64.1705 119.176C64.2888 120.359 63.8874 120.739 62.6917 120.718C58.817 120.655 54.9424 120.659 51.0677 120.718C49.9395 120.735 49.517 120.33 49.2973 119.235C48.3297 114.355 47.2818 109.487 46.2339 104.62C45.6677 101.987 45.6424 101.996 48.3297 101.886C50.155 101.81 51.017 101.011 51.0297 99.376C51.0424 97.8591 50.0029 96.845 48.355 96.7859C47.624 96.7605 46.8888 96.7098 46.1663 96.7943C44.8818 96.9464 44.4593 96.3929 44.21 95.1549C43.0057 89.1802 41.6832 83.2267 40.4071 77.2647C40.3395 76.9436 40.3353 76.6056 40.3015 76.276C46.986 76.276 53.6747 76.276 60.3593 76.2802L60.3508 76.2844Z" fill="#20F9BC"/>
<path d="M134.248 76.2507C134.358 79.0902 133.314 81.7352 132.816 84.469C132.156 88.0944 131.286 91.6775 130.563 95.2902C130.34 96.4014 129.879 96.8324 128.662 96.8113C123.841 96.731 119.02 96.7479 114.199 96.7986C113.041 96.8113 112.58 96.5028 112.699 95.2902C113.142 90.7902 113.523 86.2817 113.937 81.7775C114.106 79.9395 114.296 78.1057 114.478 76.2719C121.069 76.2634 127.656 76.2592 134.248 76.2507Z" fill="#20F9BC"/>
<path d="M108.934 76.2676C109.099 79.4704 108.477 82.6267 108.287 85.8084C108.093 89.1 107.632 92.3788 107.366 95.6662C107.294 96.5619 106.952 96.7943 106.124 96.7901C101.066 96.7648 96.0127 96.7648 90.9549 96.7901C90.1183 96.7901 89.738 96.5577 89.7465 95.6493C89.8014 89.1887 89.8225 82.7324 89.8563 76.2718C96.2155 76.2718 102.575 76.2718 108.934 76.2718V76.2676Z" fill="#20F9BC"/>
<path d="M84.3127 76.2676C84.3423 82.7662 84.3676 89.269 84.4141 95.7676C84.4225 96.6211 83.9873 96.7817 83.2606 96.7817C78.3845 96.7648 73.5085 96.7564 68.6282 96.7817C66.9634 96.7902 67.3563 95.4592 67.2423 94.6183C66.938 92.3535 66.7268 90.0676 66.6254 87.7817C66.4521 83.9324 65.6535 80.1254 65.8901 76.2507C72.0296 76.255 78.169 76.2592 84.3085 76.2634L84.3127 76.2676Z" fill="#20F9BC"/>
<path d="M157.496 76.2676C157.602 76.6732 157.454 77.0281 157.331 77.4084C155.366 83.4169 153.393 89.4211 151.479 95.4422C151.154 96.4605 150.68 96.8239 149.59 96.807C145.445 96.7394 141.296 96.7563 137.147 96.7943C136.027 96.807 135.575 96.6972 135.887 95.3239C137.172 89.6619 138.313 83.9704 139.496 78.2873C139.631 77.6324 139.707 76.9648 139.813 76.3056C145.707 76.2929 151.606 76.2845 157.5 76.2718L157.496 76.2676Z" fill="#20F9BC"/>
<path d="M35.51 96.7479C31.8678 96.7606 28.2213 96.7352 24.5791 96.807C23.5185 96.8282 23.1255 96.3592 22.8298 95.438C21.034 89.8479 19.1833 84.2789 17.3579 78.6972C17.096 77.8986 16.7917 77.1085 16.9692 76.238C20.9157 76.2676 24.8579 76.2972 28.8002 76.3268C31.0396 83.1338 33.2748 89.9409 35.5143 96.7479H35.51Z" fill="#1BD29E"/>
<path d="M35.51 96.7478C33.2705 89.9408 31.0353 83.1337 28.7959 76.3267C30.7818 76.3056 32.7635 76.2844 34.7452 76.2633C35.886 81.507 37.0353 86.7506 38.172 91.9943C38.4213 93.1436 38.5353 94.3309 38.9029 95.4379C39.3339 96.7478 38.7001 96.8492 37.6987 96.7858C36.972 96.7394 36.241 96.7605 35.51 96.752V96.7478Z" fill="#20F9BC"/>
<path d="M89.7593 111.228C89.7593 108.537 89.7889 105.841 89.7424 103.149C89.7255 102.203 90.0508 101.869 91.0015 101.877C95.8269 101.911 100.652 101.911 105.478 101.877C106.466 101.869 106.758 102.275 106.678 103.192C106.264 107.924 105.866 112.661 105.465 117.393C105.456 117.503 105.402 117.608 105.385 117.718C105.072 119.704 103.88 120.697 101.81 120.697C98.3325 120.697 94.8508 120.651 91.3734 120.723C90.1565 120.748 89.679 120.444 89.7255 119.138C89.8227 116.506 89.7551 113.865 89.7551 111.228H89.7593Z" fill="#20F9BC"/>
<path d="M120.165 101.89C122.421 101.996 125.113 101.738 127.804 102.089C128.844 102.224 128.971 102.558 128.768 103.483C127.627 108.706 126.528 113.941 125.447 119.176C125.227 120.232 124.863 120.769 123.592 120.731C119.721 120.621 115.847 120.668 111.972 120.706C110.594 120.718 110.328 120.275 110.518 118.872C110.958 115.618 111.11 112.327 111.401 109.052C111.579 107.062 111.871 105.076 111.98 103.082C112.044 101.962 112.61 101.852 113.506 101.869C115.58 101.911 117.659 101.882 120.165 101.882V101.89Z" fill="#20F9BC"/>
<path d="M84.41 111.304C84.41 113.941 84.3551 116.582 84.4354 119.214C84.4734 120.427 84.0297 120.735 82.8847 120.718C78.9002 120.659 74.9199 120.672 70.9354 120.714C69.9762 120.723 69.5664 120.499 69.4861 119.434C69.1058 114.473 68.5861 109.525 68.2016 104.569C67.9945 101.899 68.0748 101.89 70.7917 101.89C74.8312 101.89 78.8706 101.928 82.91 101.865C84.0931 101.848 84.4692 102.216 84.4354 103.394C84.3593 106.031 84.41 108.668 84.41 111.304Z" fill="#20F9BC"/>
<path d="M89.7592 135.161C89.7592 132.465 89.7888 129.773 89.7423 127.077C89.7296 126.152 90.0043 125.78 90.9803 125.789C95.1339 125.827 99.2874 125.831 103.441 125.789C104.455 125.78 104.704 126.207 104.62 127.107C104.214 131.506 103.825 135.908 103.441 140.307C103.352 141.308 103.297 142.318 103.234 143.324C103.175 144.254 102.786 144.71 101.755 144.697C98.1634 144.651 94.5719 144.655 90.9761 144.697C90.0085 144.71 89.717 144.351 89.7296 143.417C89.7719 140.666 89.7465 137.915 89.7465 135.165L89.7592 135.161Z" fill="#20F9BC"/>
<path d="M84.4099 135.262C84.4099 137.958 84.3719 140.654 84.431 143.349C84.4522 144.385 84.0972 144.71 83.0747 144.693C79.6479 144.642 76.2254 144.668 72.7986 144.676C72.1226 144.676 71.6367 144.617 71.5648 143.725C71.1423 138.313 70.6902 132.904 70.1916 127.5C70.0691 126.186 70.4536 125.734 71.8268 125.768C75.4733 125.856 79.1282 125.865 82.7747 125.768C84.1733 125.73 84.4733 126.241 84.4352 127.508C84.3507 130.09 84.4099 132.676 84.4099 135.258V135.262Z" fill="#20F9BC"/>
<path d="M116.996 125.806C118.851 125.806 120.702 125.844 122.552 125.789C123.583 125.759 124.014 126.063 123.778 127.145C122.599 132.553 121.428 137.966 120.292 143.383C120.106 144.262 119.84 144.731 118.787 144.701C115.703 144.625 112.61 144.655 109.525 144.684C108.693 144.693 108.266 144.499 108.363 143.552C108.913 138.101 109.483 132.651 109.927 127.187C110.028 125.915 110.556 125.746 111.609 125.784C113.404 125.844 115.2 125.801 117 125.801L116.996 125.806Z" fill="#20F9BC"/>
<path d="M58.0015 125.806C59.8522 125.806 61.7071 125.844 63.5578 125.789C64.4916 125.763 64.7874 126.089 64.8592 127.031C65.2775 132.549 65.7508 138.063 66.2747 143.573C66.3508 144.385 66.2874 144.689 65.417 144.68C62.2184 144.651 59.0198 144.634 55.8212 144.693C54.9127 144.71 54.6466 144.245 54.4944 143.539C53.3367 138.131 52.1874 132.718 51.0339 127.306C50.8142 126.279 51.0592 125.73 52.2804 125.78C54.186 125.861 56.0958 125.801 58.0015 125.801V125.806Z" fill="#20F9BC"/>
<path d="M43.31 120.634C39.6043 120.663 35.8987 120.668 32.1973 120.735C31.3987 120.748 31.1325 120.346 30.917 119.704C29.0832 114.173 27.2452 108.642 25.386 103.124C25.0776 102.211 25.1663 101.818 26.2734 101.839C30.0339 101.907 33.7987 101.899 37.5593 101.915C37.3438 102.79 37.6945 103.572 37.9565 104.366C39.7396 109.792 41.5269 115.213 43.3142 120.634H43.31Z" fill="#1BD29E"/>
<path d="M39.3592 125.793C40.7621 125.793 42.1691 125.882 43.5635 125.768C44.9705 125.649 45.579 126.063 45.8536 127.559C46.8297 132.875 47.9409 138.165 49.1029 143.442C49.3522 144.579 48.9592 144.693 48.0635 144.68C46.5508 144.655 45.0339 144.68 43.5212 144.672C40.6902 144.655 38.7423 143.345 37.817 140.615C36.2874 136.115 34.8888 131.573 33.3719 127.069C33.017 126.021 33.3297 125.768 34.3142 125.784C35.9959 125.818 37.6775 125.793 39.3592 125.793Z" fill="#1BD29E"/>
<path d="M135.393 125.806C136.965 125.806 138.537 125.839 140.109 125.793C141.148 125.763 141.524 125.979 141.135 127.132C139.593 131.696 138.178 136.301 136.64 140.869C135.82 143.311 133.994 144.587 131.442 144.663C129.871 144.71 128.299 144.642 126.727 144.684C125.789 144.71 125.396 144.473 125.628 143.421C126.849 137.907 128.049 132.389 129.173 126.858C129.355 125.97 129.723 125.776 130.509 125.793C132.135 125.827 133.766 125.801 135.393 125.801V125.806Z" fill="#20F9BC"/>
<path d="M43.31 120.634C41.5226 115.213 39.7353 109.792 37.9522 104.366C37.6902 103.572 37.3395 102.786 37.555 101.916C39.3973 101.87 40.4846 102.649 40.817 104.252C41.8818 109.344 42.9381 114.439 44.0283 119.527C44.1804 120.228 44.3747 120.799 43.31 120.638V120.634Z" fill="#20F9BC"/>
<path d="M87.1185 59.0324C88.2973 59.0535 89.3452 60.1436 89.3199 61.331C89.2945 62.5648 88.2593 63.4859 86.9621 63.4225C85.5931 63.3549 84.9551 62.4845 84.8664 61.2549C84.7776 60.0676 85.9396 59.007 87.1185 59.0281V59.0324Z" fill="#20F9BC"/>
</g>
<defs>
<clipPath id="clip0_457_2592">
<rect width="173.239" height="150" fill="white" transform="translate(0.380371)"/>
</clipPath>
</defs>
</svg>
