<svg width="97" height="29" viewBox="0 0 97 29" fill="none" xmlns="http://www.w3.org/2000/svg">
<path d="M0.189844 0.479999H8.18984V28H0.189844V0.479999ZM9.86984 13.32H10.8298C11.6832 13.32 12.3098 13.2933 12.7098 13.24C13.1365 13.16 13.4698 13 13.7098 12.76C13.9498 12.5467 14.0965 12.24 14.1498 11.84C14.2298 11.4133 14.2698 10.7867 14.2698 9.96C14.2698 9.13333 14.2298 8.52 14.1498 8.12C14.0965 7.69333 13.9498 7.36 13.7098 7.12C13.4698 6.90667 13.1365 6.77333 12.7098 6.72C12.2832 6.64 11.6565 6.6 10.8298 6.6H9.86984V0.479999H13.1898C15.1632 0.479999 16.7632 0.679999 17.9898 1.08C19.2432 1.45333 20.1898 2.04 20.8298 2.84C21.4432 3.58667 21.8565 4.53333 22.0698 5.68C22.2832 6.8 22.3898 8.22667 22.3898 9.96C22.3898 11.6133 22.2832 12.9867 22.0698 14.08C21.8832 15.1733 21.4965 16.0933 20.9098 16.84C20.2432 17.6933 19.2832 18.3467 18.0298 18.8C16.8032 19.2267 15.1898 19.44 13.1898 19.44H9.86984V13.32ZM30.8048 0.479999H31.4848L34.6448 11.44L30.0448 28H22.0448L30.8048 0.479999ZM39.8048 23.12H33.1248L34.8048 16.96H38.0048L33.2848 0.479999H40.6048L49.3648 28H41.2048L39.8048 23.12ZM70.9858 6.8C70.1058 6.69333 68.5591 6.54667 66.3458 6.36C65.1191 6.30667 64.1324 6.28 63.3858 6.28C62.4258 6.28 61.5191 6.30667 60.6658 6.36V0.159998H61.6658C63.8524 0.159998 66.1191 0.306665 68.4658 0.599998C69.2124 0.706664 70.0524 0.853332 70.9858 1.04V6.8ZM64.3858 19.88C64.3858 19.32 64.3458 18.92 64.2658 18.68C64.1858 18.4133 64.0524 18.24 63.8658 18.16C63.6791 18.0533 63.3591 17.9733 62.9058 17.92L57.9858 17.32C55.0791 17 53.1191 16.0533 52.1058 14.48C51.6524 13.8133 51.3458 13 51.1858 12.04C51.0258 11.08 50.9458 9.90667 50.9458 8.52C50.9458 5.56 51.7058 3.42667 53.2258 2.12C54.4524 1.05333 56.3724 0.426666 58.9858 0.24V8.28C58.9858 8.62667 58.9991 8.92 59.0258 9.16C59.0524 9.4 59.1058 9.58667 59.1858 9.72C59.2658 9.88 59.3991 10 59.5858 10.08C59.7724 10.1333 60.0524 10.1733 60.4258 10.2L65.9458 10.88C67.0924 11.04 68.0258 11.24 68.7458 11.48C69.4658 11.72 70.0791 12.0933 70.5858 12.6C71.7858 13.8533 72.3858 16.08 72.3858 19.28C72.3858 22.6667 71.6391 25.04 70.1458 26.4C69.4791 27.0133 68.6658 27.4667 67.7058 27.76C66.7724 28.0267 65.6658 28.2 64.3858 28.28V19.88ZM62.2658 28.32C59.5991 28.32 57.1191 28.2 54.8258 27.96C53.4658 27.8267 52.4391 27.6933 51.7458 27.56V21.72C53.3191 21.8533 55.1191 21.9867 57.1458 22.12C58.4258 22.1733 59.3324 22.2 59.8658 22.2C61.3058 22.2 62.2524 22.16 62.7058 22.08V28.32H62.2658ZM95.478 6.8C94.598 6.69333 93.0513 6.54667 90.838 6.36C89.6113 6.30667 88.6246 6.28 87.878 6.28C86.918 6.28 86.0113 6.30667 85.158 6.36V0.159998H86.158C88.3446 0.159998 90.6113 0.306665 92.958 0.599998C93.7046 0.706664 94.5446 0.853332 95.478 1.04V6.8ZM88.878 19.88C88.878 19.32 88.838 18.92 88.758 18.68C88.678 18.4133 88.5446 18.24 88.358 18.16C88.1713 18.0533 87.8513 17.9733 87.398 17.92L82.478 17.32C79.5713 17 77.6113 16.0533 76.598 14.48C76.1446 13.8133 75.838 13 75.678 12.04C75.518 11.08 75.438 9.90667 75.438 8.52C75.438 5.56 76.198 3.42667 77.718 2.12C78.9446 1.05333 80.8646 0.426666 83.478 0.24V8.28C83.478 8.62667 83.4913 8.92 83.518 9.16C83.5446 9.4 83.598 9.58667 83.678 9.72C83.758 9.88 83.8913 10 84.078 10.08C84.2646 10.1333 84.5446 10.1733 84.918 10.2L90.438 10.88C91.5846 11.04 92.518 11.24 93.238 11.48C93.958 11.72 94.5713 12.0933 95.078 12.6C96.278 13.8533 96.878 16.08 96.878 19.28C96.878 22.6667 96.1313 25.04 94.638 26.4C93.9713 27.0133 93.158 27.4667 92.198 27.76C91.2646 28.0267 90.158 28.2 88.878 28.28V19.88ZM86.758 28.32C84.0913 28.32 81.6113 28.2 79.318 27.96C77.958 27.8267 76.9313 27.6933 76.238 27.56V21.72C77.8113 21.8533 79.6113 21.9867 81.638 22.12C82.918 22.1733 83.8246 22.2 84.358 22.2C85.798 22.2 86.7446 22.16 87.198 22.08V28.32H86.758Z" fill="#fff"/>
</svg>
